<svg width="848" height="512" viewBox="0 0 848 512" fill="none" xmlns="http://www.w3.org/2000/svg">
<g clip-path="url(#clip0_201_5)">
<rect width="848" height="480" transform="translate(0 32)" fill="white"/>
<rect width="848" height="512" fill="white"/>
<path d="M559.464 282.672C559.464 283.584 559.576 284.416 559.8 285.168C560.024 285.904 560.344 286.536 560.76 287.064C561.192 287.576 561.712 287.976 562.32 288.264C562.928 288.552 563.616 288.696 564.384 288.696C565.136 288.696 565.816 288.552 566.424 288.264C567.032 287.976 567.544 287.576 567.96 287.064C568.392 286.536 568.72 285.904 568.944 285.168C569.168 284.416 569.28 283.584 569.28 282.672C569.28 281.76 569.168 280.936 568.944 280.2C568.72 279.448 568.392 278.816 567.96 278.304C567.544 277.776 567.032 277.368 566.424 277.08C565.816 276.792 565.136 276.648 564.384 276.648C563.616 276.648 562.928 276.792 562.32 277.08C561.712 277.368 561.192 277.776 560.76 278.304C560.344 278.832 560.024 279.464 559.8 280.2C559.576 280.936 559.464 281.76 559.464 282.672ZM572.448 282.672C572.448 284.096 572.232 285.352 571.8 286.44C571.384 287.528 570.808 288.44 570.072 289.176C569.352 289.896 568.504 290.44 567.528 290.808C566.552 291.176 565.512 291.36 564.408 291.36C563.304 291.36 562.256 291.176 561.264 290.808C560.288 290.44 559.432 289.896 558.696 289.176C557.976 288.44 557.4 287.528 556.968 286.44C556.536 285.352 556.32 284.096 556.32 282.672C556.32 281.248 556.536 280 556.968 278.928C557.4 277.84 557.984 276.928 558.72 276.192C559.472 275.456 560.336 274.904 561.312 274.536C562.288 274.168 563.32 273.984 564.408 273.984C565.496 273.984 566.528 274.168 567.504 274.536C568.48 274.904 569.328 275.456 570.048 276.192C570.784 276.928 571.368 277.84 571.8 278.928C572.232 280 572.448 281.248 572.448 282.672ZM585.917 290.616C585.357 290.76 584.629 290.904 583.733 291.048C582.837 291.208 581.853 291.288 580.781 291.288C579.773 291.288 578.925 291.144 578.237 290.856C577.565 290.568 577.021 290.168 576.605 289.656C576.205 289.144 575.917 288.536 575.741 287.832C575.565 287.112 575.477 286.328 575.477 285.48V278.448H578.381V285.024C578.381 286.368 578.573 287.328 578.957 287.904C579.357 288.48 580.045 288.768 581.021 288.768C581.373 288.768 581.741 288.752 582.125 288.72C582.525 288.688 582.821 288.648 583.013 288.6V278.448H585.917V290.616ZM589.47 275.136L592.374 274.656V278.448H596.838V280.872H592.374V285.984C592.374 286.992 592.534 287.712 592.854 288.144C593.174 288.576 593.718 288.792 594.486 288.792C595.014 288.792 595.478 288.736 595.878 288.624C596.294 288.512 596.622 288.408 596.862 288.312L597.342 290.616C597.006 290.76 596.566 290.904 596.022 291.048C595.478 291.208 594.838 291.288 594.102 291.288C593.206 291.288 592.454 291.168 591.846 290.928C591.254 290.688 590.782 290.344 590.43 289.896C590.078 289.432 589.83 288.88 589.686 288.24C589.542 287.584 589.47 286.84 589.47 286.008V275.136ZM607.973 284.784C607.973 283.488 607.677 282.48 607.085 281.76C606.509 281.04 605.573 280.68 604.277 280.68C604.005 280.68 603.717 280.696 603.413 280.728C603.125 280.744 602.837 280.792 602.549 280.872V288.048C602.805 288.224 603.141 288.392 603.557 288.552C603.989 288.696 604.445 288.768 604.925 288.768C605.981 288.768 606.749 288.408 607.229 287.688C607.725 286.968 607.973 286 607.973 284.784ZM610.949 284.736C610.949 285.696 610.821 286.576 610.565 287.376C610.325 288.176 609.973 288.864 609.509 289.44C609.045 290.016 608.461 290.464 607.757 290.784C607.069 291.104 606.285 291.264 605.405 291.264C604.813 291.264 604.269 291.192 603.773 291.048C603.277 290.904 602.869 290.744 602.549 290.568V295.44H599.645V278.856C600.237 278.696 600.965 278.544 601.829 278.4C602.693 278.256 603.605 278.184 604.565 278.184C605.557 278.184 606.445 278.336 607.229 278.64C608.013 278.944 608.677 279.384 609.221 279.96C609.781 280.52 610.205 281.208 610.493 282.024C610.797 282.824 610.949 283.728 610.949 284.736ZM624.238 290.616C623.678 290.76 622.95 290.904 622.054 291.048C621.158 291.208 620.174 291.288 619.102 291.288C618.094 291.288 617.246 291.144 616.558 290.856C615.886 290.568 615.342 290.168 614.926 289.656C614.526 289.144 614.238 288.536 614.062 287.832C613.886 287.112 613.798 286.328 613.798 285.48V278.448H616.702V285.024C616.702 286.368 616.894 287.328 617.278 287.904C617.678 288.48 618.366 288.768 619.342 288.768C619.694 288.768 620.062 288.752 620.446 288.72C620.846 288.688 621.142 288.648 621.334 288.6V278.448H624.238V290.616ZM627.79 275.136L630.694 274.656V278.448H635.158V280.872H630.694V285.984C630.694 286.992 630.854 287.712 631.174 288.144C631.494 288.576 632.038 288.792 632.806 288.792C633.334 288.792 633.798 288.736 634.198 288.624C634.614 288.512 634.942 288.408 635.182 288.312L635.662 290.616C635.326 290.76 634.886 290.904 634.342 291.048C633.798 291.208 633.158 291.288 632.422 291.288C631.526 291.288 630.774 291.168 630.166 290.928C629.574 290.688 629.102 290.344 628.75 289.896C628.398 289.432 628.15 288.88 628.006 288.24C627.862 287.584 627.79 286.84 627.79 286.008V275.136Z" fill="black"/>
<path d="M86.864 42.32C87.2053 43.472 87.568 44.6773 87.952 45.936C88.336 47.1733 88.7307 48.4213 89.136 49.68C89.5627 50.9173 89.9787 52.144 90.384 53.36C90.8107 54.5547 91.216 55.6853 91.6 56.752C91.92 55.6 92.2293 54.352 92.528 53.008C92.8267 51.6427 93.1253 50.2347 93.424 48.784C93.7227 47.312 94.0107 45.8187 94.288 44.304C94.5867 42.7893 94.864 41.296 95.12 39.824H99.28C98.5333 43.8347 97.7013 47.696 96.784 51.408C95.8667 55.0987 94.8427 58.6293 93.712 62H89.872C88.208 57.6907 86.5973 52.9867 85.04 47.888C84.2507 50.4693 83.4507 52.9227 82.64 55.248C81.8293 57.5733 81.0187 59.824 80.208 62H76.368C75.216 58.6293 74.1813 55.0987 73.264 51.408C72.368 47.696 71.5467 43.8347 70.8 39.824H75.12C75.376 41.2747 75.6427 42.7573 75.92 44.272C76.2187 45.7867 76.5173 47.28 76.816 48.752C77.136 50.2027 77.456 51.6107 77.776 52.976C78.096 54.3413 78.416 55.6 78.736 56.752C79.1413 55.664 79.5467 54.5227 79.952 53.328C80.3787 52.112 80.7947 50.8853 81.2 49.648C81.6053 48.3893 81.9893 47.1413 82.352 45.904C82.736 44.6667 83.088 43.472 83.408 42.32H86.864ZM100.974 53.712C100.974 52.24 101.187 50.9493 101.614 49.84C102.062 48.7307 102.648 47.8133 103.374 47.088C104.099 46.3413 104.931 45.7867 105.87 45.424C106.808 45.04 107.768 44.848 108.75 44.848C111.054 44.848 112.846 45.5627 114.126 46.992C115.427 48.4213 116.078 50.5547 116.078 53.392C116.078 53.6053 116.067 53.8507 116.046 54.128C116.046 54.384 116.035 54.6187 116.014 54.832H104.974C105.08 56.176 105.55 57.2213 106.382 57.968C107.235 58.6933 108.462 59.056 110.062 59.056C111 59.056 111.854 58.9707 112.622 58.8C113.411 58.6293 114.03 58.448 114.478 58.256L114.99 61.424C114.776 61.5307 114.478 61.648 114.094 61.776C113.731 61.8827 113.304 61.9787 112.814 62.064C112.344 62.1707 111.832 62.256 111.278 62.32C110.723 62.384 110.158 62.416 109.582 62.416C108.11 62.416 106.83 62.2027 105.742 61.776C104.654 61.328 103.758 60.72 103.054 59.952C102.35 59.1627 101.827 58.2453 101.486 57.2C101.144 56.1333 100.974 54.9707 100.974 53.712ZM112.206 51.984C112.206 51.4507 112.131 50.9493 111.982 50.48C111.832 49.9893 111.608 49.5733 111.31 49.232C111.032 48.8693 110.68 48.592 110.254 48.4C109.848 48.1867 109.358 48.08 108.782 48.08C108.184 48.08 107.662 48.1973 107.214 48.432C106.766 48.6453 106.382 48.9333 106.062 49.296C105.763 49.6587 105.528 50.0747 105.358 50.544C105.187 51.0133 105.07 51.4933 105.006 51.984H112.206ZM126.007 62.32C124.855 62.2987 123.895 62.1707 123.127 61.936C122.38 61.7013 121.783 61.3707 121.335 60.944C120.887 60.496 120.567 59.952 120.375 59.312C120.204 58.6507 120.119 57.904 120.119 57.072V37.808L123.991 37.168V56.336C123.991 56.8053 124.023 57.2 124.087 57.52C124.172 57.84 124.311 58.1173 124.503 58.352C124.695 58.5653 124.951 58.736 125.271 58.864C125.612 58.9707 126.039 59.056 126.551 59.12L126.007 62.32ZM128.755 53.648C128.755 52.4107 128.947 51.2587 129.331 50.192C129.715 49.104 130.259 48.1653 130.963 47.376C131.688 46.5867 132.563 45.968 133.587 45.52C134.611 45.072 135.763 44.848 137.043 44.848C138.621 44.848 140.115 45.136 141.523 45.712L140.691 48.88C140.243 48.688 139.731 48.528 139.155 48.4C138.6 48.272 138.003 48.208 137.363 48.208C135.848 48.208 134.696 48.688 133.907 49.648C133.117 50.5867 132.723 51.92 132.723 53.648C132.723 55.312 133.096 56.6347 133.843 57.616C134.589 58.576 135.848 59.056 137.619 59.056C138.28 59.056 138.931 58.992 139.571 58.864C140.211 58.736 140.765 58.576 141.235 58.384L141.779 61.584C141.352 61.7973 140.701 61.9893 139.827 62.16C138.973 62.3307 138.088 62.416 137.171 62.416C135.741 62.416 134.493 62.2027 133.427 61.776C132.381 61.328 131.507 60.72 130.803 59.952C130.12 59.1627 129.608 58.2347 129.267 57.168C128.925 56.08 128.755 54.9067 128.755 53.648ZM159.569 53.616C159.569 54.9387 159.377 56.144 158.993 57.232C158.609 58.32 158.065 59.248 157.361 60.016C156.657 60.784 155.803 61.3813 154.801 61.808C153.819 62.2347 152.731 62.448 151.537 62.448C150.342 62.448 149.254 62.2347 148.273 61.808C147.291 61.3813 146.449 60.784 145.745 60.016C145.041 59.248 144.486 58.32 144.081 57.232C143.697 56.144 143.505 54.9387 143.505 53.616C143.505 52.2933 143.697 51.0987 144.081 50.032C144.486 48.944 145.041 48.016 145.745 47.248C146.47 46.48 147.323 45.8933 148.305 45.488C149.286 45.0613 150.363 44.848 151.537 44.848C152.71 44.848 153.787 45.0613 154.769 45.488C155.771 45.8933 156.625 46.48 157.329 47.248C158.033 48.016 158.577 48.944 158.961 50.032C159.366 51.0987 159.569 52.2933 159.569 53.616ZM155.601 53.616C155.601 51.952 155.238 50.64 154.513 49.68C153.809 48.6987 152.817 48.208 151.537 48.208C150.257 48.208 149.254 48.6987 148.529 49.68C147.825 50.64 147.473 51.952 147.473 53.616C147.473 55.3013 147.825 56.6347 148.529 57.616C149.254 58.5973 150.257 59.088 151.537 59.088C152.817 59.088 153.809 58.5973 154.513 57.616C155.238 56.6347 155.601 55.3013 155.601 53.616ZM173.094 53.2C173.094 51.4507 172.87 50.192 172.422 49.424C171.995 48.6347 171.184 48.24 169.99 48.24C169.563 48.24 169.094 48.272 168.582 48.336C168.07 48.4 167.686 48.4533 167.43 48.496V62H163.558V45.808C164.304 45.5947 165.275 45.392 166.47 45.2C167.686 45.008 168.966 44.912 170.31 44.912C171.462 44.912 172.4 45.0613 173.126 45.36C173.872 45.6587 174.491 46.0533 174.982 46.544C175.216 46.3733 175.515 46.192 175.878 46C176.24 45.808 176.646 45.6373 177.094 45.488C177.542 45.3173 178.011 45.1787 178.502 45.072C179.014 44.9653 179.526 44.912 180.038 44.912C181.339 44.912 182.406 45.104 183.238 45.488C184.091 45.8507 184.752 46.3733 185.222 47.056C185.712 47.7173 186.043 48.528 186.214 49.488C186.406 50.4267 186.502 51.4613 186.502 52.592V62H182.63V53.2C182.63 51.4507 182.416 50.192 181.99 49.424C181.563 48.6347 180.742 48.24 179.526 48.24C178.907 48.24 178.32 48.3467 177.766 48.56C177.211 48.752 176.795 48.944 176.518 49.136C176.688 49.6693 176.806 50.2347 176.87 50.832C176.934 51.4293 176.966 52.0693 176.966 52.752V62H173.094V53.2ZM190.317 53.712C190.317 52.24 190.531 50.9493 190.957 49.84C191.405 48.7307 191.992 47.8133 192.717 47.088C193.443 46.3413 194.275 45.7867 195.213 45.424C196.152 45.04 197.112 44.848 198.093 44.848C200.397 44.848 202.189 45.5627 203.469 46.992C204.771 48.4213 205.421 50.5547 205.421 53.392C205.421 53.6053 205.411 53.8507 205.389 54.128C205.389 54.384 205.379 54.6187 205.357 54.832H194.317C194.424 56.176 194.893 57.2213 195.725 57.968C196.579 58.6933 197.805 59.056 199.405 59.056C200.344 59.056 201.197 58.9707 201.965 58.8C202.755 58.6293 203.373 58.448 203.821 58.256L204.333 61.424C204.12 61.5307 203.821 61.648 203.437 61.776C203.075 61.8827 202.648 61.9787 202.157 62.064C201.688 62.1707 201.176 62.256 200.621 62.32C200.067 62.384 199.501 62.416 198.925 62.416C197.453 62.416 196.173 62.2027 195.085 61.776C193.997 61.328 193.101 60.72 192.397 59.952C191.693 59.1627 191.171 58.2453 190.829 57.2C190.488 56.1333 190.317 54.9707 190.317 53.712ZM201.549 51.984C201.549 51.4507 201.475 50.9493 201.325 50.48C201.176 49.9893 200.952 49.5733 200.653 49.232C200.376 48.8693 200.024 48.592 199.597 48.4C199.192 48.1867 198.701 48.08 198.125 48.08C197.528 48.08 197.005 48.1973 196.557 48.432C196.109 48.6453 195.725 48.9333 195.405 49.296C195.107 49.6587 194.872 50.0747 194.701 50.544C194.531 51.0133 194.413 51.4933 194.349 51.984H201.549Z" fill="black"/>
<path d="M224.992 274.368H228.016V291H224.992V274.368ZM231.856 278.856C232.416 278.696 233.144 278.544 234.04 278.4C234.936 278.256 235.928 278.184 237.016 278.184C238.04 278.184 238.896 278.328 239.584 278.616C240.272 278.888 240.816 279.28 241.216 279.792C241.632 280.288 241.92 280.896 242.08 281.616C242.256 282.32 242.344 283.096 242.344 283.944V291H239.44V284.4C239.44 283.728 239.392 283.16 239.296 282.696C239.216 282.216 239.072 281.832 238.864 281.544C238.672 281.24 238.4 281.024 238.048 280.896C237.712 280.752 237.296 280.68 236.8 280.68C236.432 280.68 236.048 280.704 235.648 280.752C235.248 280.8 234.952 280.84 234.76 280.872V291H231.856V278.856ZM254.223 284.784C254.223 283.488 253.927 282.48 253.335 281.76C252.759 281.04 251.823 280.68 250.527 280.68C250.255 280.68 249.967 280.696 249.663 280.728C249.375 280.744 249.087 280.792 248.799 280.872V288.048C249.055 288.224 249.391 288.392 249.807 288.552C250.239 288.696 250.695 288.768 251.175 288.768C252.231 288.768 252.999 288.408 253.479 287.688C253.975 286.968 254.223 286 254.223 284.784ZM257.199 284.736C257.199 285.696 257.071 286.576 256.815 287.376C256.575 288.176 256.223 288.864 255.759 289.44C255.295 290.016 254.711 290.464 254.007 290.784C253.319 291.104 252.535 291.264 251.655 291.264C251.063 291.264 250.519 291.192 250.023 291.048C249.527 290.904 249.119 290.744 248.799 290.568V295.44H245.895V278.856C246.487 278.696 247.215 278.544 248.079 278.4C248.943 278.256 249.855 278.184 250.815 278.184C251.807 278.184 252.695 278.336 253.479 278.64C254.263 278.944 254.927 279.384 255.471 279.96C256.031 280.52 256.455 281.208 256.743 282.024C257.047 282.824 257.199 283.728 257.199 284.736ZM270.488 290.616C269.928 290.76 269.2 290.904 268.304 291.048C267.408 291.208 266.424 291.288 265.352 291.288C264.344 291.288 263.496 291.144 262.808 290.856C262.136 290.568 261.592 290.168 261.176 289.656C260.776 289.144 260.488 288.536 260.312 287.832C260.136 287.112 260.048 286.328 260.048 285.48V278.448H262.952V285.024C262.952 286.368 263.144 287.328 263.528 287.904C263.928 288.48 264.616 288.768 265.592 288.768C265.944 288.768 266.312 288.752 266.696 288.72C267.096 288.688 267.392 288.648 267.584 288.6V278.448H270.488V290.616ZM274.04 275.136L276.944 274.656V278.448H281.408V280.872H276.944V285.984C276.944 286.992 277.104 287.712 277.424 288.144C277.744 288.576 278.288 288.792 279.056 288.792C279.584 288.792 280.048 288.736 280.448 288.624C280.864 288.512 281.192 288.408 281.432 288.312L281.912 290.616C281.576 290.76 281.136 290.904 280.592 291.048C280.048 291.208 279.408 291.288 278.672 291.288C277.776 291.288 277.024 291.168 276.416 290.928C275.824 290.688 275.352 290.344 275 289.896C274.648 289.432 274.4 288.88 274.256 288.24C274.112 287.584 274.04 286.84 274.04 286.008V275.136Z" fill="black"/>
<path d="M406.18 227.526H408.448V240H406.18V234.474H400.762V240H398.494V227.526H400.762V232.512H406.18V227.526ZM419.838 235.284C419.838 236.028 419.73 236.706 419.514 237.318C419.298 237.93 418.992 238.452 418.596 238.884C418.2 239.316 417.72 239.652 417.156 239.892C416.604 240.132 415.992 240.252 415.32 240.252C414.648 240.252 414.036 240.132 413.484 239.892C412.932 239.652 412.458 239.316 412.062 238.884C411.666 238.452 411.354 237.93 411.125 237.318C410.91 236.706 410.802 236.028 410.802 235.284C410.802 234.54 410.91 233.868 411.125 233.268C411.354 232.656 411.666 232.134 412.062 231.702C412.47 231.27 412.95 230.94 413.502 230.712C414.054 230.472 414.66 230.352 415.32 230.352C415.98 230.352 416.586 230.472 417.138 230.712C417.702 230.94 418.182 231.27 418.578 231.702C418.974 232.134 419.28 232.656 419.496 233.268C419.724 233.868 419.838 234.54 419.838 235.284ZM417.606 235.284C417.606 234.348 417.402 233.61 416.994 233.07C416.598 232.518 416.04 232.242 415.32 232.242C414.6 232.242 414.036 232.518 413.628 233.07C413.232 233.61 413.034 234.348 413.034 235.284C413.034 236.232 413.232 236.982 413.628 237.534C414.036 238.086 414.6 238.362 415.32 238.362C416.04 238.362 416.598 238.086 416.994 237.534C417.402 236.982 417.606 236.232 417.606 235.284ZM421.973 228.102L424.151 227.742V230.586H427.499V232.404H424.151V236.238C424.151 236.994 424.271 237.534 424.511 237.858C424.751 238.182 425.159 238.344 425.735 238.344C426.131 238.344 426.479 238.302 426.779 238.218C427.091 238.134 427.337 238.056 427.517 237.984L427.877 239.712C427.625 239.82 427.295 239.928 426.887 240.036C426.479 240.156 425.999 240.216 425.447 240.216C424.775 240.216 424.211 240.126 423.755 239.946C423.311 239.766 422.957 239.508 422.693 239.172C422.429 238.824 422.243 238.41 422.135 237.93C422.027 237.438 421.973 236.88 421.973 236.256V228.102ZM431.783 234.258C432.059 233.97 432.353 233.664 432.665 233.34C432.977 233.004 433.283 232.674 433.583 232.35C433.883 232.014 434.165 231.696 434.429 231.396C434.705 231.084 434.939 230.814 435.131 230.586H437.705C437.105 231.258 436.469 231.954 435.797 232.674C435.137 233.394 434.471 234.096 433.799 234.78C434.159 235.08 434.537 235.446 434.933 235.878C435.329 236.298 435.713 236.748 436.085 237.228C436.457 237.708 436.805 238.188 437.129 238.668C437.453 239.148 437.723 239.592 437.939 240H435.419C435.203 239.628 434.951 239.238 434.663 238.83C434.387 238.422 434.087 238.026 433.763 237.642C433.439 237.258 433.109 236.898 432.773 236.562C432.437 236.214 432.107 235.92 431.783 235.68V240H429.605V226.392L431.783 226.032V234.258ZM438.575 235.338C438.575 234.51 438.695 233.784 438.935 233.16C439.187 232.536 439.517 232.02 439.925 231.612C440.333 231.192 440.801 230.88 441.329 230.676C441.857 230.46 442.397 230.352 442.949 230.352C444.245 230.352 445.253 230.754 445.973 231.558C446.705 232.362 447.071 233.562 447.071 235.158C447.071 235.278 447.065 235.416 447.053 235.572C447.053 235.716 447.047 235.848 447.035 235.968H440.825C440.885 236.724 441.149 237.312 441.617 237.732C442.097 238.14 442.787 238.344 443.687 238.344C444.215 238.344 444.695 238.296 445.127 238.2C445.571 238.104 445.919 238.002 446.171 237.894L446.459 239.676C446.339 239.736 446.171 239.802 445.955 239.874C445.751 239.934 445.511 239.988 445.235 240.036C444.971 240.096 444.683 240.144 444.371 240.18C444.059 240.216 443.741 240.234 443.417 240.234C442.589 240.234 441.869 240.114 441.257 239.874C440.645 239.622 440.141 239.28 439.745 238.848C439.349 238.404 439.055 237.888 438.863 237.3C438.671 236.7 438.575 236.046 438.575 235.338ZM444.893 234.366C444.893 234.066 444.851 233.784 444.767 233.52C444.683 233.244 444.557 233.01 444.389 232.818C444.233 232.614 444.035 232.458 443.795 232.35C443.567 232.23 443.291 232.17 442.967 232.17C442.631 232.17 442.337 232.236 442.085 232.368C441.833 232.488 441.617 232.65 441.437 232.854C441.269 233.058 441.137 233.292 441.041 233.556C440.945 233.82 440.879 234.09 440.843 234.366H444.893ZM457.066 230.586C456.094 234.162 454.966 237.402 453.682 240.306C453.442 240.846 453.196 241.308 452.944 241.692C452.692 242.076 452.41 242.394 452.098 242.646C451.786 242.898 451.438 243.078 451.054 243.186C450.67 243.306 450.226 243.366 449.722 243.366C449.386 243.366 449.05 243.33 448.714 243.258C448.39 243.186 448.144 243.108 447.976 243.024L448.372 241.278C448.804 241.446 449.23 241.53 449.65 241.53C450.214 241.53 450.652 241.392 450.964 241.116C451.288 240.852 451.57 240.438 451.81 239.874C451.126 238.554 450.466 237.114 449.83 235.554C449.206 233.994 448.648 232.338 448.156 230.586H450.478C450.598 231.09 450.742 231.636 450.91 232.224C451.09 232.812 451.282 233.412 451.486 234.024C451.69 234.624 451.906 235.224 452.134 235.824C452.362 236.424 452.59 236.982 452.818 237.498C453.202 236.43 453.562 235.296 453.898 234.096C454.234 232.884 454.54 231.714 454.816 230.586H457.066Z" fill="black"/>
<path d="M390.494 226V213.526H398.504V215.452H392.762V218.53H397.874V220.42H392.762V224.074H398.936V226H390.494ZM409.321 215.2C408.925 215.632 408.445 216.196 407.881 216.892C407.317 217.576 406.735 218.326 406.135 219.142C405.535 219.946 404.941 220.78 404.353 221.644C403.777 222.496 403.267 223.306 402.823 224.074H409.519V226H400.087V224.578C400.327 224.134 400.603 223.654 400.915 223.138C401.239 222.61 401.581 222.07 401.941 221.518C402.301 220.966 402.673 220.408 403.057 219.844C403.453 219.28 403.843 218.74 404.227 218.224C404.611 217.696 404.983 217.198 405.343 216.73C405.715 216.25 406.063 215.824 406.387 215.452H400.393V213.526H409.321V215.2Z" fill="black"/>
<path fill-rule="evenodd" clip-rule="evenodd" d="M917.089 336.763C976.946 351.293 1023.02 393.655 1067.2 436.576C1105.39 473.684 1140.9 514.631 1153.44 566.386C1165.4 615.742 1139.55 663.263 1134.37 713.783C1127.21 783.723 1171.97 874.556 1117.36 918.834C1063.66 962.378 985.703 898.464 917.089 889.957C860.119 882.894 799.039 902.98 749.915 873.277C698.973 842.476 665.796 787.257 651.613 729.441C638.04 674.11 666.539 620.699 674.103 564.232C683.994 490.395 648.311 399.008 702.696 348.096C756.25 297.962 845.8 319.458 917.089 336.763Z" fill="#64D2FF"/>
<path fill-rule="evenodd" clip-rule="evenodd" d="M-139.412 215.269C-78.3093 182.665 -11.8127 118.288 51.3346 146.73C116.223 175.957 104.246 273.236 133.412 338.152C154.373 384.805 186.806 423.275 198.007 473.179C211.904 535.097 230.877 600.643 205.369 658.749C177.423 722.412 124.273 784.086 55.9265 796.842C-11.2065 809.372 -70.3232 756.014 -129.056 721.168C-174.47 694.224 -212.114 660.172 -244.599 618.541C-277.932 575.823 -313.669 532.244 -318.582 478.283C-323.719 421.855 -303.754 366.008 -271.854 319.179C-239.47 271.641 -190.16 242.348 -139.412 215.269Z" fill="#64D2FF"/>
<g filter="url(#filter0_d_201_5)">
<rect x="483" y="189" width="225" height="75" rx="25" fill="white"/>
<rect x="484.5" y="190.5" width="222" height="72" rx="23.5" stroke="#2C2C2E" stroke-opacity="0.8" stroke-width="3"/>
</g>
<g filter="url(#filter1_d_201_5)">
<rect x="140" y="189" width="225" height="75" rx="25" fill="white"/>
<rect x="141.5" y="190.5" width="222" height="72" rx="23.5" stroke="#2C2C2E" stroke-opacity="0.8" stroke-width="3"/>
</g>
<circle cx="796.5" cy="62.5" r="30.5" fill="white"/>
<g filter="url(#filter2_d_201_5)">
<circle cx="796.5" cy="62.5" r="16.5" stroke="#2C2C2E" stroke-width="2" shape-rendering="crispEdges"/>
</g>
<path d="M798.368 74H794.496V57.264H798.368V74ZM798.784 52.368C798.784 53.0933 798.549 53.6693 798.08 54.096C797.611 54.5227 797.056 54.736 796.416 54.736C795.755 54.736 795.189 54.5227 794.72 54.096C794.251 53.6693 794.016 53.0933 794.016 52.368C794.016 51.6213 794.251 51.0347 794.72 50.608C795.189 50.1813 795.755 49.968 796.416 49.968C797.056 49.968 797.611 50.1813 798.08 50.608C798.549 51.0347 798.784 51.6213 798.784 52.368Z" fill="#2C2C2E"/>
<rect x="374" y="267" width="100" height="100" rx="20" fill="white"/>
<g filter="url(#filter3_d_201_5)">
<rect x="389" y="282" width="70" height="70" rx="20" fill="#64D2FF"/>
</g>
<path d="M415.75 303.077L439 316.5L415.75 329.923V303.077Z" stroke="black" stroke-width="2"/>
</g>
<rect width="848" height="32" fill="white"/>
<defs>
<filter id="filter0_d_201_5" x="475" y="181" width="245" height="95" filterUnits="userSpaceOnUse" color-interpolation-filters="sRGB">
<feFlood flood-opacity="0" result="BackgroundImageFix"/>
<feColorMatrix in="SourceAlpha" type="matrix" values="0 0 0 0 0 0 0 0 0 0 0 0 0 0 0 0 0 0 127 0" result="hardAlpha"/>
<feOffset dx="2" dy="2"/>
<feGaussianBlur stdDeviation="5"/>
<feComposite in2="hardAlpha" operator="out"/>
<feColorMatrix type="matrix" values="0 0 0 0 0 0 0 0 0 0 0 0 0 0 0 0 0 0 0.25 0"/>
<feBlend mode="normal" in2="BackgroundImageFix" result="effect1_dropShadow_201_5"/>
<feBlend mode="normal" in="SourceGraphic" in2="effect1_dropShadow_201_5" result="shape"/>
</filter>
<filter id="filter1_d_201_5" x="132" y="181" width="245" height="95" filterUnits="userSpaceOnUse" color-interpolation-filters="sRGB">
<feFlood flood-opacity="0" result="BackgroundImageFix"/>
<feColorMatrix in="SourceAlpha" type="matrix" values="0 0 0 0 0 0 0 0 0 0 0 0 0 0 0 0 0 0 127 0" result="hardAlpha"/>
<feOffset dx="2" dy="2"/>
<feGaussianBlur stdDeviation="5"/>
<feComposite in2="hardAlpha" operator="out"/>
<feColorMatrix type="matrix" values="0 0 0 0 0 0 0 0 0 0 0 0 0 0 0 0 0 0 0.25 0"/>
<feBlend mode="normal" in2="BackgroundImageFix" result="effect1_dropShadow_201_5"/>
<feBlend mode="normal" in="SourceGraphic" in2="effect1_dropShadow_201_5" result="shape"/>
</filter>
<filter id="filter2_d_201_5" x="770" y="36" width="55" height="55" filterUnits="userSpaceOnUse" color-interpolation-filters="sRGB">
<feFlood flood-opacity="0" result="BackgroundImageFix"/>
<feColorMatrix in="SourceAlpha" type="matrix" values="0 0 0 0 0 0 0 0 0 0 0 0 0 0 0 0 0 0 127 0" result="hardAlpha"/>
<feOffset dx="1" dy="1"/>
<feGaussianBlur stdDeviation="5"/>
<feComposite in2="hardAlpha" operator="out"/>
<feColorMatrix type="matrix" values="0 0 0 0 0 0 0 0 0 0 0 0 0 0 0 0 0 0 0.25 0"/>
<feBlend mode="normal" in2="BackgroundImageFix" result="effect1_dropShadow_201_5"/>
<feBlend mode="normal" in="SourceGraphic" in2="effect1_dropShadow_201_5" result="shape"/>
</filter>
<filter id="filter3_d_201_5" x="381" y="274" width="90" height="90" filterUnits="userSpaceOnUse" color-interpolation-filters="sRGB">
<feFlood flood-opacity="0" result="BackgroundImageFix"/>
<feColorMatrix in="SourceAlpha" type="matrix" values="0 0 0 0 0 0 0 0 0 0 0 0 0 0 0 0 0 0 127 0" result="hardAlpha"/>
<feOffset dx="2" dy="2"/>
<feGaussianBlur stdDeviation="5"/>
<feComposite in2="hardAlpha" operator="out"/>
<feColorMatrix type="matrix" values="0 0 0 0 0 0 0 0 0 0 0 0 0 0 0 0 0 0 0.25 0"/>
<feBlend mode="normal" in2="BackgroundImageFix" result="effect1_dropShadow_201_5"/>
<feBlend mode="normal" in="SourceGraphic" in2="effect1_dropShadow_201_5" result="shape"/>
</filter>
<clipPath id="clip0_201_5">
<rect width="848" height="480" fill="white" transform="translate(0 32)"/>
</clipPath>
</defs>
</svg>
