<svg width="27" height="28" viewBox="0 0 27 28" fill="none" xmlns="http://www.w3.org/2000/svg">
<circle cx="13.5" cy="13.5" r="13.5" fill="#1D252C"/>
<path d="M16.3516 16.2812H20.1484C20.0859 17.4531 19.7656 18.4883 19.1875 19.3867C18.6172 20.2773 17.8242 20.9766 16.8086 21.4844C15.793 21.9844 14.5859 22.2344 13.1875 22.2344C12.0703 22.2344 11.0703 22.043 10.1875 21.6602C9.30469 21.2773 8.55469 20.7305 7.9375 20.0195C7.32812 19.3008 6.85938 18.4375 6.53125 17.4297C6.21094 16.4141 6.05078 15.2695 6.05078 13.9961V12.9531C6.05078 11.6797 6.21875 10.5352 6.55469 9.51953C6.89062 8.50391 7.37109 7.63672 7.99609 6.91797C8.62109 6.19922 9.37109 5.64844 10.2461 5.26562C11.1211 4.88281 12.0977 4.69141 13.1758 4.69141C14.6289 4.69141 15.8555 4.95312 16.8555 5.47656C17.8555 6 18.6289 6.71875 19.1758 7.63281C19.7305 8.54688 20.0625 9.58984 20.1719 10.7617H16.3633C16.332 10.0977 16.207 9.53906 15.9883 9.08594C15.7695 8.625 15.4336 8.27734 14.9805 8.04297C14.5273 7.80859 13.9258 7.69141 13.1758 7.69141C12.6289 7.69141 12.1484 7.79297 11.7344 7.99609C11.3281 8.19922 10.9883 8.51562 10.7148 8.94531C10.4492 9.375 10.25 9.92188 10.1172 10.5859C9.98438 11.2422 9.91797 12.0234 9.91797 12.9297V13.9961C9.91797 14.8945 9.97656 15.6719 10.0938 16.3281C10.2109 16.9844 10.3984 17.5273 10.6562 17.957C10.9219 18.3867 11.2617 18.707 11.6758 18.918C12.0898 19.1289 12.5938 19.2344 13.1875 19.2344C13.8672 19.2344 14.4336 19.1289 14.8867 18.918C15.3398 18.6992 15.6875 18.3711 15.9297 17.9336C16.1719 17.4961 16.3125 16.9453 16.3516 16.2812Z" fill="#82FFD8"/>
</svg>
